<?xml version="1.0" encoding="UTF-8"?>
<svg version="1.1" xmlns="http://www.w3.org/2000/svg" width="812" height="758">
<path d="M0 0 C2.02405897 1.12650538 4.02584345 2.28611487 6.02539062 3.45556641 C10.98749744 6.24700261 16.1432705 8.67414053 21.25 11.1875 C29.40511403 15.25290248 37.51650569 19.38501804 45.56201172 23.6628418 C50.82217072 26.45288448 56.1068715 29.19168806 61.40625 31.90625 C62.12628708 32.27509308 62.84632416 32.64393616 63.58818054 33.0239563 C65.08663409 33.79141207 66.58510341 34.55883706 68.08358765 35.32623291 C80.95148738 41.91776463 93.75529938 48.60790984 106.48193359 55.46826172 C116.16644298 60.6849429 125.91601471 65.76913227 135.68359375 70.828125 C140.82123498 73.48912919 145.94520094 76.17512191 151.0625 78.875 C168.02678072 87.81774563 185.04607793 96.65146495 202.09869385 105.42434692 C211.62120482 110.32364498 221.12894175 115.24942068 230.6171875 120.21484375 C239.03889923 124.61655994 247.48747276 128.96548841 255.9375 133.3125 C266.21694211 138.60073186 276.49187175 143.89634154 286.72485352 149.27416992 C291.58191114 151.82174213 296.45461709 154.33360777 301.35345459 156.79969788 C304.16871314 158.21788488 306.979607 159.64462043 309.79046631 161.07150269 C311.15945265 161.7633713 312.53053506 162.451111 313.90386963 163.13430786 C333.02930901 172.65220829 333.02930901 172.65220829 336.79495335 181.7257719 C337.99224551 185.61408597 337.8763355 189.51622926 337.86987305 193.55493164 C337.88513503 195.01980168 337.88513503 195.01980168 337.90070534 196.51426506 C337.93128232 199.83378488 337.94021819 203.15301229 337.94921875 206.47265625 C337.96652072 208.92803233 337.98496808 211.38340055 338.00444031 213.83876038 C338.0490164 219.99264234 338.07845312 226.14644642 338.10044283 232.30044633 C338.11883434 237.42548416 338.1423163 242.55047499 338.16900635 247.67547607 C338.2613862 265.62225873 338.32539153 283.56903674 338.3736186 301.51598978 C338.40685057 313.88123161 338.44499314 326.24643588 338.49212646 338.6116333 C338.49942521 340.52745818 338.49942521 340.52745818 338.5068714 342.48198658 C338.51691372 345.11458818 338.52695661 347.74718978 338.53700006 350.37979138 C338.63741669 376.78212051 338.71301607 403.18442154 338.76092052 429.58689976 C338.76608139 432.40460276 338.77128798 435.22230567 338.77651978 438.04000854 C338.77780054 438.73686607 338.7790813 439.4337236 338.78040088 440.15169802 C338.80016957 450.73050544 338.83313112 461.30921948 338.87265015 471.88796997 C338.9181426 484.0825758 338.94496699 496.27703212 338.94971627 508.4717322 C338.95266782 514.80161472 338.96390252 521.13121063 338.99652672 527.4610157 C339.02648846 533.32889775 339.03301693 539.19633318 339.02128851 545.06427562 C339.02109651 547.1999324 339.02939351 549.33561016 339.04699743 551.47119439 C339.2225633 573.98200616 339.2225633 573.98200616 330.5390625 583.03515625 C325.58884131 586.82521069 319.71170969 589.01235913 313.98419189 591.35958862 C310.9324258 592.61083759 307.89336321 593.89177801 304.85299683 595.17042542 C303.16310265 595.88086097 301.4725917 596.58983088 299.78152466 597.29747009 C289.3100792 601.68519993 278.9048202 606.22518355 268.49481201 610.7562561 C262.78694197 613.24032399 257.07698836 615.71959301 251.3671875 618.19921875 C250.25916779 618.68053757 249.15114807 619.16185638 248.009552 619.65776062 C238.83939578 623.64042157 229.66276838 627.60797767 220.48403931 631.5708313 C199.74574502 640.52583472 179.07778329 649.63406715 158.4375 658.8125 C134.10512598 669.63275173 109.71401607 680.30739018 85.26576233 690.86297607 C77.98675108 694.00608737 70.7117971 697.15849506 63.4375 700.3125 C61.0299589 701.3554941 58.62240662 702.3984624 56.21484375 703.44140625 C51.26008057 705.58786445 46.30683082 707.7377825 41.35440063 709.88961792 C38.04745683 711.32598207 34.73973244 712.76054303 31.43188477 714.19482422 C29.842033 714.88464847 28.25250093 715.57521013 26.66333008 716.26660156 C18.89199238 719.6472542 11.10889175 723.00001817 3.265625 726.2109375 C1.5336084 726.9232251 1.5336084 726.9232251 -0.23339844 727.64990234 C-10.85711007 731.35994303 -18.132872 729.37147661 -27.91650391 724.65869141 C-33.52428459 721.81650206 -39.04629443 718.82750867 -44.5625 715.8125 C-46.82874268 714.61140484 -49.10115894 713.4229501 -51.375 712.23632812 C-53.59215044 711.07680735 -55.80183609 709.90377601 -58.01171875 708.73046875 C-65.57776076 704.73361536 -73.19995062 700.84476147 -80.8125 696.9375 C-93.52527986 690.41043783 -106.21695648 683.84576767 -118.87646484 677.21582031 C-121.6816795 675.75023462 -124.49076007 674.29228456 -127.30078125 672.8359375 C-136.65054736 667.98532466 -145.95858417 663.07717258 -155.1875 658 C-166.70487006 651.67055927 -178.37840167 645.65150871 -190.06463623 639.64234924 C-196.40541842 636.38145453 -202.73425494 633.09764946 -209.0625 629.8125 C-218.35107389 624.99401409 -227.64285613 620.18176368 -236.9375 615.375 C-237.53850525 615.06418488 -238.1395105 614.75336975 -238.75872803 614.43313599 C-243.02654928 612.22605863 -247.29450879 610.01924868 -251.5625 607.8125 C-256.4375951 605.29185055 -261.31262874 602.77108234 -266.1875 600.25 C-266.78866638 599.93910431 -267.38983276 599.62820862 -268.00921631 599.30789185 C-277.8044138 594.24196023 -287.59620518 589.16947817 -297.38354492 584.08837891 C-303.2489728 581.04437751 -309.11883288 578.00935122 -314.99609375 574.98828125 C-321.08379811 571.85875729 -327.16076111 568.70920829 -333.23046875 565.54492188 C-335.37836205 564.42816844 -337.52919982 563.31705122 -339.68359375 562.21289062 C-342.46559368 560.78494511 -345.23406214 559.33375339 -348 557.875 C-349.18807251 557.27522339 -349.18807251 557.27522339 -350.40014648 556.66333008 C-357.52626058 552.84294331 -361.91936695 547.46523314 -364.5625 539.8125 C-364.82421303 537.10604858 -364.82421303 537.10604858 -364.8409729 534.11474609 C-364.85213827 532.96894262 -364.86330364 531.82313915 -364.87480736 530.64261436 C-364.87696566 529.386411 -364.87912395 528.13020763 -364.88134766 526.8359375 C-364.89065607 525.48181898 -364.90081115 524.12770606 -364.91173744 522.77359962 C-364.9392639 519.03863392 -364.95426095 515.30370616 -364.96714115 511.56866503 C-364.98321308 507.50662251 -365.01049776 503.44465163 -365.03607178 499.38265991 C-365.09022141 490.40972535 -365.12893511 481.4367619 -365.16460419 472.46373749 C-365.18709077 466.82243229 -365.21282142 461.1811447 -365.23907471 455.53985596 C-365.33767662 434.15696443 -365.41776367 412.77404949 -365.4848578 391.39103675 C-365.53589948 375.13351844 -365.59789351 358.87607376 -365.66623855 342.61861944 C-365.76381921 319.34000708 -365.84009865 296.06143655 -365.88752556 272.78266525 C-365.91227222 260.78879155 -365.94466726 248.79505609 -365.99737549 236.80126953 C-366.04238862 226.51581406 -366.06973104 216.23049512 -366.07461596 205.94493926 C-366.07761662 200.65626625 -366.0887611 195.36793656 -366.12154388 190.07935715 C-366.15149203 185.20782215 -366.15803604 180.33682527 -366.14629245 175.46521759 C-366.14609827 173.69993929 -366.1543548 171.93463519 -366.17199636 170.16944504 C-366.26676998 160.15273092 -366.20387933 151.10939212 -359.13907051 143.22367191 C-355.84194775 140.23793598 -352.06279845 138.42911226 -348.015625 136.67578125 C-347.06943298 136.26114624 -347.06943298 136.26114624 -346.10412598 135.83813477 C-344.01100997 134.924002 -341.91194598 134.02448887 -339.8125 133.125 C-338.30207082 132.46912102 -336.79198824 131.81244334 -335.28222656 131.1550293 C-330.38201874 129.02596098 -325.47275957 126.91825877 -320.5625 124.8125 C-318.90751802 124.10164181 -317.25257006 123.39070439 -315.59765625 122.6796875 C-308.74595167 119.73724128 -301.89227395 116.79943949 -295.03515625 113.86962891 C-276.79898764 106.07589521 -258.61710294 98.15861982 -240.43606567 90.23733521 C-234.90731827 87.8296999 -229.37429119 85.43232524 -223.8359375 83.046875 C-211.66637796 77.8030371 -199.55154849 72.47177466 -187.52709961 66.90185547 C-178.80872438 62.88180078 -169.99354946 59.10563004 -161.15966797 55.34765625 C-153.42714704 52.05372659 -145.7332803 48.68503133 -138.0625 45.25 C-121.28367594 37.74661519 -104.38942925 30.50951284 -87.50932312 23.23773193 C-80.65725793 20.28565566 -73.80803061 17.32713538 -66.96337891 14.35791016 C-64.5227933 13.29955251 -62.07947681 12.24843753 -59.63427734 11.20068359 C-54.12994158 8.83595495 -48.67906059 6.41278445 -43.2890625 3.796875 C-28.87693394 -3.10449312 -15.07336686 -7.75448397 0 0 Z " fill="#F3F3F3" transform="translate(419.5625,17.1875)"/>
<path d="M0 0 C2.02405897 1.12650538 4.02584345 2.28611487 6.02539062 3.45556641 C10.98749744 6.24700261 16.1432705 8.67414053 21.25 11.1875 C29.40511403 15.25290248 37.51650569 19.38501804 45.56201172 23.6628418 C50.82217072 26.45288448 56.1068715 29.19168806 61.40625 31.90625 C62.12628708 32.27509308 62.84632416 32.64393616 63.58818054 33.0239563 C65.08663409 33.79141207 66.58510341 34.55883706 68.08358765 35.32623291 C80.95148738 41.91776463 93.75529938 48.60790984 106.48193359 55.46826172 C116.16644298 60.6849429 125.91601471 65.76913227 135.68359375 70.828125 C140.82123498 73.48912919 145.94520094 76.17512191 151.0625 78.875 C168.02678072 87.81774563 185.04607793 96.65146495 202.09869385 105.42434692 C211.62120482 110.32364498 221.12894175 115.24942068 230.6171875 120.21484375 C239.03889923 124.61655994 247.48747276 128.96548841 255.9375 133.3125 C266.21694211 138.60073186 276.49187175 143.89634154 286.72485352 149.27416992 C291.58191114 151.82174213 296.45461709 154.33360777 301.35345459 156.79969788 C304.16871314 158.21788488 306.979607 159.64462043 309.79046631 161.07150269 C311.15945265 161.7633713 312.53053506 162.451111 313.90386963 163.13430786 C333.02930901 172.65220829 333.02930901 172.65220829 336.79495335 181.7257719 C337.99224551 185.61408597 337.8763355 189.51622926 337.86987305 193.55493164 C337.88513503 195.01980168 337.88513503 195.01980168 337.90070534 196.51426506 C337.93128232 199.83378488 337.94021819 203.15301229 337.94921875 206.47265625 C337.96652072 208.92803233 337.98496808 211.38340055 338.00444031 213.83876038 C338.0490164 219.99264234 338.07845312 226.14644642 338.10044283 232.30044633 C338.11883434 237.42548416 338.1423163 242.55047499 338.16900635 247.67547607 C338.2613862 265.62225873 338.32539153 283.56903674 338.3736186 301.51598978 C338.40685057 313.88123161 338.44499314 326.24643588 338.49212646 338.6116333 C338.49942521 340.52745818 338.49942521 340.52745818 338.5068714 342.48198658 C338.51691372 345.11458818 338.52695661 347.74718978 338.53700006 350.37979138 C338.63741669 376.78212051 338.71301607 403.18442154 338.76092052 429.58689976 C338.76608139 432.40460276 338.77128798 435.22230567 338.77651978 438.04000854 C338.77780054 438.73686607 338.7790813 439.4337236 338.78040088 440.15169802 C338.80016957 450.73050544 338.83313112 461.30921948 338.87265015 471.88796997 C338.9181426 484.0825758 338.94496699 496.27703212 338.94971627 508.4717322 C338.95266782 514.80161472 338.96390252 521.13121063 338.99652672 527.4610157 C339.02648846 533.32889775 339.03301693 539.19633318 339.02128851 545.06427562 C339.02109651 547.1999324 339.02939351 549.33561016 339.04699743 551.47119439 C339.2225633 573.98200616 339.2225633 573.98200616 330.5390625 583.03515625 C325.58884131 586.82521069 319.71170969 589.01235913 313.98419189 591.35958862 C310.9324258 592.61083759 307.89336321 593.89177801 304.85299683 595.17042542 C303.16310265 595.88086097 301.4725917 596.58983088 299.78152466 597.29747009 C289.3100792 601.68519993 278.9048202 606.22518355 268.49481201 610.7562561 C262.78694197 613.24032399 257.07698836 615.71959301 251.3671875 618.19921875 C250.25916779 618.68053757 249.15114807 619.16185638 248.009552 619.65776062 C238.83939578 623.64042157 229.66276838 627.60797767 220.48403931 631.5708313 C199.74574502 640.52583472 179.07778329 649.63406715 158.4375 658.8125 C134.10512598 669.63275173 109.71401607 680.30739018 85.26576233 690.86297607 C77.98675108 694.00608737 70.7117971 697.15849506 63.4375 700.3125 C61.0299589 701.3554941 58.62240662 702.3984624 56.21484375 703.44140625 C51.26008057 705.58786445 46.30683082 707.7377825 41.35440063 709.88961792 C38.04745683 711.32598207 34.73973244 712.76054303 31.43188477 714.19482422 C29.842033 714.88464847 28.25250093 715.57521013 26.66333008 716.26660156 C18.89199238 719.6472542 11.10889175 723.00001817 3.265625 726.2109375 C1.5336084 726.9232251 1.5336084 726.9232251 -0.23339844 727.64990234 C-10.85711007 731.35994303 -18.132872 729.37147661 -27.91650391 724.65869141 C-33.52428459 721.81650206 -39.04629443 718.82750867 -44.5625 715.8125 C-46.82874268 714.61140484 -49.10115894 713.4229501 -51.375 712.23632812 C-53.59215044 711.07680735 -55.80183609 709.90377601 -58.01171875 708.73046875 C-65.57776076 704.73361536 -73.19995062 700.84476147 -80.8125 696.9375 C-93.52527986 690.41043783 -106.21695648 683.84576767 -118.87646484 677.21582031 C-121.6816795 675.75023462 -124.49076007 674.29228456 -127.30078125 672.8359375 C-136.65054736 667.98532466 -145.95858417 663.07717258 -155.1875 658 C-166.70487006 651.67055927 -178.37840167 645.65150871 -190.06463623 639.64234924 C-196.40541842 636.38145453 -202.73425494 633.09764946 -209.0625 629.8125 C-218.35107389 624.99401409 -227.64285613 620.18176368 -236.9375 615.375 C-237.53850525 615.06418488 -238.1395105 614.75336975 -238.75872803 614.43313599 C-243.02654928 612.22605863 -247.29450879 610.01924868 -251.5625 607.8125 C-256.4375951 605.29185055 -261.31262874 602.77108234 -266.1875 600.25 C-266.78866638 599.93910431 -267.38983276 599.62820862 -268.00921631 599.30789185 C-277.8044138 594.24196023 -287.59620518 589.16947817 -297.38354492 584.08837891 C-303.2489728 581.04437751 -309.11883288 578.00935122 -314.99609375 574.98828125 C-321.08379811 571.85875729 -327.16076111 568.70920829 -333.23046875 565.54492188 C-335.37836205 564.42816844 -337.52919982 563.31705122 -339.68359375 562.21289062 C-342.46559368 560.78494511 -345.23406214 559.33375339 -348 557.875 C-349.18807251 557.27522339 -349.18807251 557.27522339 -350.40014648 556.66333008 C-357.52626058 552.84294331 -361.91936695 547.46523314 -364.5625 539.8125 C-364.82421303 537.10604858 -364.82421303 537.10604858 -364.8409729 534.11474609 C-364.85213827 532.96894262 -364.86330364 531.82313915 -364.87480736 530.64261436 C-364.87696566 529.386411 -364.87912395 528.13020763 -364.88134766 526.8359375 C-364.89065607 525.48181898 -364.90081115 524.12770606 -364.91173744 522.77359962 C-364.9392639 519.03863392 -364.95426095 515.30370616 -364.96714115 511.56866503 C-364.98321308 507.50662251 -365.01049776 503.44465163 -365.03607178 499.38265991 C-365.09022141 490.40972535 -365.12893511 481.4367619 -365.16460419 472.46373749 C-365.18709077 466.82243229 -365.21282142 461.1811447 -365.23907471 455.53985596 C-365.33767662 434.15696443 -365.41776367 412.77404949 -365.4848578 391.39103675 C-365.53589948 375.13351844 -365.59789351 358.87607376 -365.66623855 342.61861944 C-365.76381921 319.34000708 -365.84009865 296.06143655 -365.88752556 272.78266525 C-365.91227222 260.78879155 -365.94466726 248.79505609 -365.99737549 236.80126953 C-366.04238862 226.51581406 -366.06973104 216.23049512 -366.07461596 205.94493926 C-366.07761662 200.65626625 -366.0887611 195.36793656 -366.12154388 190.07935715 C-366.15149203 185.20782215 -366.15803604 180.33682527 -366.14629245 175.46521759 C-366.14609827 173.69993929 -366.1543548 171.93463519 -366.17199636 170.16944504 C-366.26676998 160.15273092 -366.20387933 151.10939212 -359.13907051 143.22367191 C-355.84194775 140.23793598 -352.06279845 138.42911226 -348.015625 136.67578125 C-347.06943298 136.26114624 -347.06943298 136.26114624 -346.10412598 135.83813477 C-344.01100997 134.924002 -341.91194598 134.02448887 -339.8125 133.125 C-338.30207082 132.46912102 -336.79198824 131.81244334 -335.28222656 131.1550293 C-330.38201874 129.02596098 -325.47275957 126.91825877 -320.5625 124.8125 C-318.90751802 124.10164181 -317.25257006 123.39070439 -315.59765625 122.6796875 C-308.74595167 119.73724128 -301.89227395 116.79943949 -295.03515625 113.86962891 C-276.79898764 106.07589521 -258.61710294 98.15861982 -240.43606567 90.23733521 C-234.90731827 87.8296999 -229.37429119 85.43232524 -223.8359375 83.046875 C-211.66637796 77.8030371 -199.55154849 72.47177466 -187.52709961 66.90185547 C-178.80872438 62.88180078 -169.99354946 59.10563004 -161.15966797 55.34765625 C-153.42714704 52.05372659 -145.7332803 48.68503133 -138.0625 45.25 C-121.28367594 37.74661519 -104.38942925 30.50951284 -87.50932312 23.23773193 C-80.65725793 20.28565566 -73.80803061 17.32713538 -66.96337891 14.35791016 C-64.5227933 13.29955251 -62.07947681 12.24843753 -59.63427734 11.20068359 C-54.12994158 8.83595495 -48.67906059 6.41278445 -43.2890625 3.796875 C-28.87693394 -3.10449312 -15.07336686 -7.75448397 0 0 Z M-37.5625 6.8125 C-38.46484375 7.21855469 -39.3671875 7.62460937 -40.296875 8.04296875 C-42.0082054 8.82157094 -43.71644474 9.60699531 -45.421875 10.3984375 C-49.60329635 12.28111726 -53.8316377 14.04431732 -58.0625 15.8125 C-63.09325553 17.91625284 -68.11255565 20.02315074 -73.0625 22.3125 C-78.7774276 24.95565401 -84.58594101 27.36901644 -90.40039062 29.78320312 C-94.58185334 31.52694706 -98.7256507 33.32979575 -102.84375 35.21875 C-110.12166107 38.54957844 -117.50932855 41.61416408 -124.890625 44.70703125 C-130.96418856 47.26166995 -136.98770695 49.89551612 -142.9765625 52.64257812 C-147.73184994 54.79395061 -152.55844892 56.77371995 -157.37890625 58.7734375 C-161.55189667 60.51508626 -165.68957123 62.31202355 -169.80078125 64.1953125 C-176.23558002 67.1399556 -182.74013878 69.91367897 -189.25 72.6875 C-191.74125305 73.75174518 -194.23200437 74.81716127 -196.72265625 75.8828125 C-198.49987061 76.64319824 -198.49987061 76.64319824 -200.31298828 77.41894531 C-208.18712614 80.79577318 -216.03436651 84.23260632 -223.85546875 87.73046875 C-232.51165248 91.59972735 -241.19989552 95.36726115 -249.94848633 99.02319336 C-254.0161688 100.72693251 -258.05863605 102.46218265 -262.0625 104.3125 C-266.86943354 106.53394224 -271.7397573 108.58363862 -276.625 110.625 C-282.97307234 113.27837409 -289.28463524 115.99704407 -295.5625 118.8125 C-301.69595932 121.56244512 -307.8601939 124.22161522 -314.0625 126.8125 C-323.29149655 130.67595477 -332.46787673 134.64158304 -341.5625 138.8125 C-342.59141357 139.28284668 -342.59141357 139.28284668 -343.64111328 139.76269531 C-345.58141353 140.65894041 -347.51081887 141.57489637 -349.4375 142.5 C-350.52804687 143.01949219 -351.61859375 143.53898438 -352.7421875 144.07421875 C-358.40275006 147.56306963 -360.03876349 151.50399538 -361.5625 157.8125 C-361.85529385 161.14047603 -361.85529385 161.14047603 -361.80973816 164.59611988 C-361.81215505 165.2444712 -361.81457195 165.89282252 -361.81706208 166.56082085 C-361.82267747 168.72439301 -361.8140531 170.88766507 -361.80541992 173.05122375 C-361.80645836 174.62168793 -361.80836121 176.19215174 -361.81105232 177.76261395 C-361.81583345 182.07152986 -361.8080165 186.38034432 -361.79804254 190.68924797 C-361.78941303 195.33898423 -361.79228055 199.98871609 -361.79350281 204.63845825 C-361.79386452 214.80163912 -361.77903718 224.96476359 -361.76094818 235.12792611 C-361.74968437 241.47481515 -361.74142018 247.82170587 -361.73370361 254.16860008 C-361.71178252 271.74507907 -361.68609926 289.32154316 -361.64648438 306.89799213 C-361.6439559 308.02239055 -361.64142742 309.14678897 -361.63882232 310.30526007 C-361.63628392 311.43232396 -361.63374553 312.55938785 -361.63113022 313.72060519 C-361.62598833 316.00441061 -361.62085249 318.28821604 -361.61572266 320.57202148 C-361.6131749 321.7048641 -361.61062715 322.83770671 -361.60800219 324.00487789 C-361.56742689 342.36586105 -361.55383166 360.7267571 -361.55188239 379.08778105 C-361.54949726 397.94350322 -361.5247062 416.79908738 -361.47740459 435.65475148 C-361.4513709 446.2397194 -361.434946 456.82450787 -361.44320679 467.40950966 C-361.45013006 476.4213976 -361.43656697 485.43296305 -361.39636487 494.44476906 C-361.37646887 499.04154891 -361.36618994 503.63781358 -361.38202477 508.23462105 C-361.39629791 512.44619458 -361.38279111 516.65674847 -361.34753573 520.86819019 C-361.3396321 522.38831879 -361.34174341 523.90854098 -361.35511148 525.42863134 C-361.42856474 534.53428596 -360.61307841 541.59265599 -354.5625 548.8125 C-351.82386894 551.2106598 -351.82386894 551.2106598 -348.63671875 552.6953125 C-347.75472054 553.15854416 -347.75472054 553.15854416 -346.85490417 553.63113403 C-345.52079178 554.3262425 -344.17981483 555.00828242 -342.83343506 555.67932129 C-340.31845474 556.93427666 -337.82454396 558.22628411 -335.33056641 559.52246094 C-329.36308629 562.61262152 -323.37030495 565.65177084 -317.375 568.6875 C-313.31805398 570.74551623 -309.26216177 572.80559642 -305.20703125 574.8671875 C-304.21965973 575.3690155 -303.23228821 575.87084351 -302.21499634 576.38787842 C-293.61337283 580.76840489 -285.06837641 585.25187507 -276.53768921 589.76861572 C-272.05659034 592.13686917 -267.55842392 594.47255787 -263.0625 596.8125 C-257.60833514 599.65251691 -252.15473295 602.49290335 -246.72265625 605.375 C-238.05807545 609.97074049 -229.34493578 614.44552767 -220.5625 618.8125 C-210.98335169 623.57562912 -201.49615895 628.48623484 -192.04638672 633.5 C-187.39556576 635.95752049 -182.7279949 638.38298844 -178.0625 640.8125 C-172.56207869 643.6770939 -167.06254356 646.54276452 -161.58203125 649.4453125 C-153.6848299 653.627378 -145.76160847 657.7283981 -137.75 661.6875 C-130.67346166 665.18750084 -123.72276239 668.87026168 -116.8125 672.6875 C-108.08031634 677.50857069 -99.23144065 682.03688908 -90.29370117 686.46362305 C-84.36366779 689.40353881 -78.47085154 692.39615305 -72.625 695.5 C-63.70183545 700.23528681 -54.72975297 704.87323361 -45.75 709.5 C-45.05198273 709.86008148 -44.35396545 710.22016296 -43.63479614 710.59115601 C-39.60161578 712.67139425 -35.56476318 714.74421926 -31.52334595 716.80841064 C-29.54504369 717.82143884 -27.57080199 718.84211977 -25.59643555 719.86279297 C-24.34314026 720.50397976 -23.0896496 721.14478484 -21.8359375 721.78515625 C-20.73556152 722.35113525 -19.63518555 722.91711426 -18.50146484 723.50024414 C-11.70241603 726.53603808 -6.97467821 725.12134169 -0.1875 722.625 C4.78426604 720.60160684 9.65100785 718.35448981 14.53320312 716.1262207 C19.16571402 714.03076499 23.83274243 712.01657715 28.5 710 C35.66588225 706.89741432 42.81354389 703.76008731 49.9375 700.5625 C56.46443698 697.63763177 63.04507844 694.91412753 69.71484375 692.33203125 C73.72390218 690.73908372 77.62778664 688.92318312 81.54858398 687.1262207 C86.17273302 685.02341111 90.83701524 683.01484019 95.5 681 C102.57973684 677.93333323 109.64573561 674.84035259 116.6875 671.6875 C123.5254067 668.62930227 130.41163734 665.70136249 137.32421875 662.81640625 C142.81474419 660.51741777 148.25831402 658.12745924 153.6875 655.6875 C160.29794306 652.71815306 166.95706147 649.94820193 173.71484375 647.33203125 C177.72390218 645.73908372 181.62778664 643.92318312 185.54858398 642.1262207 C190.17273302 640.02341111 194.83701524 638.01484019 199.5 636 C206.57973565 632.93333375 213.64577546 629.84044044 220.6875 626.6875 C227.69086047 623.55437615 234.74638736 620.55927674 241.82519531 617.60107422 C246.74057455 615.54231393 251.6004183 613.39340029 256.4375 611.15625 C261.34384329 608.95861707 266.31051893 606.90323483 271.27539062 604.84179688 C275.45853931 603.09734987 279.60342896 601.2932283 283.72265625 599.40234375 C290.96381112 596.08765033 298.32181976 593.05523616 305.67773438 590.00585938 C320.97642611 584.47000962 320.97642611 584.47000962 332.4375 573.8125 C334.02879051 569.09452661 334.68575754 565.00640192 334.67635822 560.03891087 C334.67787633 559.39164873 334.67939443 558.74438659 334.68095854 558.07751045 C334.68357613 555.91764897 334.67190055 553.75810983 334.66023254 551.59828186 C334.65912168 550.03051825 334.65888678 548.46275381 334.65945071 546.89498991 C334.6584156 542.59360216 334.64479531 538.29233266 334.62906539 533.99097693 C334.61426151 529.34946827 334.61104364 524.70794935 334.60629272 520.06642151 C334.59505132 510.97602756 334.57275435 501.88569297 334.54630206 492.79533178 C334.52492716 485.40712795 334.507134 478.01892384 334.49188805 470.63070488 C334.48861779 469.05363629 334.48861779 469.05363629 334.48528146 467.44470773 C334.48085587 465.30886433 334.476433 463.17302091 334.47201284 461.0371775 C334.43002556 441.00641221 334.37491459 420.97569868 334.31582262 400.94497763 C334.26216457 382.61823927 334.22491442 364.29151058 334.195424 345.96471877 C334.16499721 327.14745713 334.12355092 308.33024945 334.07013911 289.51303858 C334.04034537 278.94830418 334.01492243 268.38360268 334.00101662 257.8188343 C333.98905634 248.82563493 333.96668817 239.83253519 333.93086074 230.83939797 C333.91286693 226.25110252 333.89966351 221.66292626 333.89940834 217.07459259 C333.89904792 212.87325788 333.88490604 208.67220208 333.85983904 204.47094422 C333.85318439 202.95219251 333.85154387 201.4334087 333.85546193 199.91464747 C333.89323028 189.02190964 333.89323028 189.02190964 330.4375 178.8125 C326.90013468 175.26893965 322.48496542 172.97394292 318.125 170.5625 C317.41843262 170.16901367 316.71186523 169.77552734 315.98388672 169.37011719 C309.38997606 165.72977477 302.67832429 162.35512974 295.91992188 159.03320312 C267.71021097 145.16139406 267.71021097 145.16139406 256.86157227 138.75830078 C253.37929058 136.77942128 249.83791755 134.96679085 246.24609375 133.19921875 C237.66475696 128.9412138 229.13426202 124.58738243 220.61157227 120.21337891 C218.1382235 118.94428508 215.66388054 117.67714543 213.18945312 116.41015625 C204.22755493 111.81640524 195.29498604 107.1713066 186.38908386 102.46994019 C179.14889506 98.65126432 171.87506138 94.90018916 164.59082031 91.16638184 C160.80934712 89.2278409 157.02970668 87.28573239 153.25 85.34375 C152.49686523 84.95684998 151.74373047 84.56994995 150.96777344 84.17132568 C140.8551634 78.97429235 130.76486229 73.73430783 120.67480469 68.49365234 C115.13848939 65.61860957 109.60052536 62.74674706 104.0625 59.875 C102.95326172 59.29975586 101.84402344 58.72451172 100.70117188 58.13183594 C91.83890711 53.53687197 82.97249098 48.94996736 74.1050415 44.36502075 C64.27694498 39.28324523 54.45302522 34.19346947 44.63232422 29.09741211 C38.67729355 26.0080488 32.71951427 22.92411951 26.7578125 19.84765625 C25.46027845 19.17774988 24.16275237 18.50782809 22.86523438 17.83789062 C20.41663993 16.57364871 17.96733319 15.31082316 15.51757812 14.04882812 C6.16340168 9.21931335 6.16340168 9.21931335 1.83886719 6.85107422 C0.68290039 6.21830566 -0.47306641 5.58553711 -1.6640625 4.93359375 C-2.70127441 4.35923584 -3.73848633 3.78487793 -4.80712891 3.19311523 C-16.15483548 -2.49280366 -26.85354531 1.9563831 -37.5625 6.8125 Z " fill="#181818" transform="translate(419.5625,17.1875)"/>
<path d="M0 0 C5.25809896 4.77815078 10.32550562 11.84382454 10.953125 19.09765625 C11.16124668 31.15137017 8.02782805 39.17847239 -0.25390625 47.84765625 C-5.68808488 53.04852488 -11.31236397 55.98471691 -18.25 58.75 C-19.3121875 59.2553125 -20.374375 59.760625 -21.46875 60.28125 C-25.87751555 62.17388977 -30.3987935 62.78524073 -35.125 63.4375 C-36.39537109 63.63182617 -36.39537109 63.63182617 -37.69140625 63.83007812 C-58.06441059 66.77839192 -78.00019832 62.4313988 -95.30078125 51.30078125 C-95.94402344 50.78902344 -96.58726562 50.27726562 -97.25 49.75 C-97.25 49.09 -97.25 48.43 -97.25 47.75 C-98.24 47.42 -99.23 47.09 -100.25 46.75 C-106.98164206 39.87811539 -109.3491372 32.30700731 -109.8125 22.875 C-109.60211618 14.01019098 -106.04581776 7.61044678 -100.25 1.0625 C-73.73457676 -23.34107537 -27.17975855 -21.88766946 0 0 Z " fill="#DD3535" transform="translate(446.25,145.25)"/>
<path d="M0 0 C5.90072632 2.14878047 10.27788971 4.1608114 14.359375 9.05859375 C15.60123713 10.08931153 16.85226233 11.10903228 18.109375 12.12109375 C27.77931405 20.58911948 33.70241489 31.28251572 38.359375 43.05859375 C38.79507813 44.156875 39.23078125 45.25515625 39.6796875 46.38671875 C43.83936954 58.66214408 44.99524039 74.89030657 39.5625 86.9609375 C36.73999968 91.88198514 33.62247856 95.61959454 28.359375 98.05859375 C17.92826238 100.60842128 10.06926652 98.50607542 1.046875 93.05859375 C0.16 92.39859375 -0.726875 91.73859375 -1.640625 91.05859375 C-2.445 90.48109375 -3.249375 89.90359375 -4.078125 89.30859375 C-17.69476839 77.35251663 -25.96279811 61.33056997 -30.640625 44.05859375 C-30.817146 43.43686279 -30.99366699 42.81513184 -31.17553711 42.17456055 C-32.06434943 38.13081439 -31.86769812 33.99506596 -31.890625 29.87109375 C-31.91125 28.96294922 -31.931875 28.05480469 -31.953125 27.11914062 C-32.00325993 18.36432874 -30.14972589 11.02598605 -24.640625 4.05859375 C-17.33225496 -2.37973224 -9.34760133 -2.41713725 0 0 Z " fill="#202020" transform="translate(295.640625,329.94140625)"/>
<path d="M0 0 C5.68496377 4.6999983 8.93175276 10.503018 10.51171875 17.65234375 C12.50952457 38.74310393 6.43907413 57.48706418 -6.55078125 74.15234375 C-13.63264409 82.50531018 -13.63264409 82.50531018 -17.48828125 85.65234375 C-18.14828125 85.65234375 -18.80828125 85.65234375 -19.48828125 85.65234375 C-19.48828125 86.31234375 -19.48828125 86.97234375 -19.48828125 87.65234375 C-21.46828125 88.14734375 -21.46828125 88.14734375 -23.48828125 88.65234375 C-23.48828125 89.31234375 -23.48828125 89.97234375 -23.48828125 90.65234375 C-32.76366086 96.55485804 -40.67289376 98.13974779 -51.48828125 96.65234375 C-55.86135549 94.96156087 -58.24801974 93.30100149 -60.73828125 89.33984375 C-61.2178125 88.60121094 -61.69734375 87.86257813 -62.19140625 87.1015625 C-65.26171228 81.3031231 -65.87629665 76.15421139 -65.86328125 69.71484375 C-65.86166992 68.88090088 -65.86005859 68.04695801 -65.85839844 67.18774414 C-65.70305852 59.20677525 -64.07479475 52.22262715 -61.48828125 44.65234375 C-61.07255859 43.3375 -61.07255859 43.3375 -60.6484375 41.99609375 C-56.25016111 29.51066401 -48.07189471 19.52194628 -38.48828125 10.65234375 C-37.71097656 9.81316406 -36.93367187 8.97398437 -36.1328125 8.109375 C-33.16014022 5.34746826 -30.05560647 3.61910096 -26.42578125 1.90234375 C-25.81412109 1.59941406 -25.20246094 1.29648437 -24.57226562 0.984375 C-16.87727582 -2.75913355 -7.91329912 -4.28585274 0 0 Z " fill="#202020" transform="translate(710.48828125,271.34765625)"/>
<path d="M0 0 C5.86951127 5.39010306 7.94808912 12.09691245 8.48828125 19.86328125 C8.89507372 41.16636068 1.81039205 59.72826055 -12.75 75.4375 C-13.47058594 76.23800781 -14.19117188 77.03851563 -14.93359375 77.86328125 C-23.36863705 86.80953929 -32.71077112 93.30703811 -45.25 93.75 C-51.56637009 93.61155901 -55.41329658 92.28512596 -60.4375 88.3125 C-68.02707632 78.87681052 -68.46109767 68.15718943 -67.51171875 56.515625 C-64.95552511 37.40872301 -53.67183649 17.66475245 -38.43359375 5.71875 C-35.32165626 3.42731031 -32.08198163 1.39646033 -28.75 -0.5625 C-27.74066406 -1.18125 -27.74066406 -1.18125 -26.7109375 -1.8125 C-19.35887855 -5.43994759 -6.69556984 -4.60635068 0 0 Z " fill="#202020" transform="translate(630.75,425.5625)"/>
<path d="M0 0 C4.96833594 3.49460219 7.69999252 8.07328186 8.921875 14.0546875 C11.35808087 35.94622754 4.25082079 55.23512238 -9.11328125 72.359375 C-17.83557696 82.48081029 -28.1678862 90.47143014 -41.5625 93.0859375 C-48.01609384 93.47092426 -53.70365343 91.49473648 -58.80078125 87.546875 C-66.48800722 78.03529722 -66.24054334 68.18899771 -65.80078125 56.546875 C-65.4630032 53.39106291 -64.76792735 50.56538887 -63.80078125 47.546875 C-63.49398438 46.50402344 -63.1871875 45.46117187 -62.87109375 44.38671875 C-57.01506653 26.15226158 -45.05777954 10.780447 -28.80078125 0.546875 C-18.92322855 -4.45937097 -9.84151932 -5.50012697 0 0 Z " fill="#202020" transform="translate(533.80078125,578.453125)"/>
<path d="M0 0 C6.57175655 2.23291567 11.7464635 6.65221581 17 11.0625 C17.66 11.60777344 18.32 12.15304687 19 12.71484375 C27.27834148 20.24583496 33.67019964 31.82697929 38 42.0625 C38.5878125 43.41408203 38.5878125 43.41408203 39.1875 44.79296875 C43.69420944 56.88910206 44.78101541 73.97128828 39.41015625 85.92578125 C36.30800042 90.62627775 32.3633349 94.2747217 27 96.0625 C15.15534499 97.30847569 7.26727424 94.89928667 -2.09765625 87.671875 C-17.02803534 75.11400738 -27.74372539 56.4392848 -30.75 37.125 C-30.8612536 35.77284082 -30.94013221 34.41790682 -31 33.0625 C-31.06316406 32.00289062 -31.12632813 30.94328125 -31.19140625 29.8515625 C-31.50530529 20.51559763 -30.42868522 12.13656193 -24.5625 4.5625 C-17.41046557 -2.41509457 -9.3927299 -2.23058368 0 0 Z " fill="#202020" transform="translate(148,489.9375)"/>
<path d="M0 0 C3.96 0 7.92 0 12 0 C12 0.66 12 1.32 12 2 C11.071875 2.8971875 11.071875 2.8971875 10.125 3.8125 C7.878516 6.12505706 7.0093366 7.97199019 6 11 C0 3.28571429 0 3.28571429 0 0 Z " fill="#D3D3D3" transform="translate(402,343)"/>
<path d="M0 0 C0.66 0 1.32 0 2 0 C2.33 0.99 2.66 1.98 3 3 C5.50447516 4.21869929 5.50447516 4.21869929 8 5 C6 7 6 7 4.01171875 7.265625 C-0.43184013 7.23575234 -3.95827531 7.08605145 -8 5 C-8 4.67 -8 4.34 -8 4 C-4.535 3.505 -4.535 3.505 -1 3 C-0.67 2.01 -0.34 1.02 0 0 Z " fill="#BCBCBC" transform="translate(407,735)"/>
<path d="M0 0 C0 3 0 3 -2.1875 5.48046875 C-3.115625 6.37378906 -4.04375 7.26710938 -5 8.1875 C-5.928125 9.08855469 -6.85625 9.98960937 -7.8125 10.91796875 C-8.534375 11.60503906 -9.25625 12.29210937 -10 13 C-10.66 12.67 -11.32 12.34 -12 12 C-10.56665422 10.37133456 -9.12817021 8.74719006 -7.6875 7.125 C-6.88699219 6.22007812 -6.08648438 5.31515625 -5.26171875 4.3828125 C-3 2 -3 2 0 0 Z " fill="#3E3E3E" transform="translate(592,432)"/>
<path d="M0 0 C2.79872437 2.52788007 4.45773019 4.20411134 5 8 C3.02 7.34 1.04 6.68 -1 6 C-0.67 4.02 -0.34 2.04 0 0 Z " fill="#C9C9C9" transform="translate(747,194)"/>
<path d="M0 0 C8.71428571 1.85714286 8.71428571 1.85714286 11 5 C10.01 5.495 10.01 5.495 9 6 C6.8359375 5.00390625 6.8359375 5.00390625 4.375 3.5625 C3.55773437 3.08941406 2.74046875 2.61632812 1.8984375 2.12890625 C1.27195312 1.75636719 0.64546875 1.38382813 0 1 C0 0.67 0 0.34 0 0 Z " fill="#C9C9C9" transform="translate(309,692)"/>
<path d="M0 0 C0.66 0.33 1.32 0.66 2 1 C0.02 3.31 -1.96 5.62 -4 8 C-4.66 7.67 -5.32 7.34 -6 7 C-4.02 4.69 -2.04 2.38 0 0 Z " fill="#444444" transform="translate(274,331)"/>
<path d="M0 0 C0.5534764 2.07553648 1 3.84365964 1 6 C-0.65 6.33 -2.3 6.66 -4 7 C-2.92598892 4.08482708 -2.22189824 2.22189824 0 0 Z " fill="#C5C5C5" transform="translate(64,163)"/>
</svg>
